<svg width="1227" height="2307" viewBox="0 0 1227 2307" fill="none" xmlns="http://www.w3.org/2000/svg">
<g id="Body/Pointing Up">
<path id="Skin" fill-rule="evenodd" clip-rule="evenodd" d="M328.421 152.706L795.704 292.897L676.4 491.531L313.079 277.837C143.479 267.744 63.3447 251.026 72.6771 227.686C80.5459 208.005 99.2743 204.652 116.525 201.564C129.964 199.158 142.505 196.912 148.318 187.234C161.593 165.132 115.06 107.597 68.5653 54.8855C22.0707 2.17398 59.2776 -0.281343 81.7516 3.94633C159.026 35.2997 241.249 84.8861 328.421 152.706ZM443.749 1143.81L836.995 855.21L923.926 1069.97L534.51 1231.36C424.376 1360.65 362.791 1414.55 349.756 1393.06C338.765 1374.93 347.356 1357.97 355.27 1342.34C361.435 1330.17 367.188 1318.8 362.953 1308.34C353.28 1284.44 279.299 1286.96 209.196 1292.35C139.092 1297.73 159.522 1266.56 176.426 1251.17C247.985 1208.36 337.093 1172.57 443.749 1143.81Z" fill="#B28B67"/>
<path id="Coat Back" fill-rule="evenodd" clip-rule="evenodd" d="M1447.81 77.9944C1233.66 477.061 923.991 782.975 475.056 1100.98L645.041 1292.54C1146.29 1106.37 1410.84 994.044 1540.76 617.007C1573.36 522.378 1596.15 220.72 1615.7 62.0024L1447.81 77.9944Z" fill="#158957"/>
<path id="Shirt" fill-rule="evenodd" clip-rule="evenodd" d="M2046.47 1407.58H1097.2C1097.2 1407.58 1419.74 424.473 1426.73 58.0935C1426.97 45.6412 1449.98 23.6986 1460.16 26.5722C1571.84 58.0935 1699.16 3 1699.16 3C1924.2 364.721 2002.03 810.072 2046.47 1407.58Z" fill="#F2F2F2"/>
<path id="Coat Front" fill-rule="evenodd" clip-rule="evenodd" d="M1461.05 815.917C1312.79 1451.51 1319.63 1971.8 1646.95 1971.8H2153.09C2233.48 1431.88 2022.21 683.257 1826.34 305.659C1818.86 291.24 1802.93 264.057 1765.42 264.057H1618.35C1618.29 264.251 1618.22 264.446 1618.16 264.641C1573.9 265.003 1525.16 266.62 1472.38 268.371C1200.66 277.386 821.777 289.957 395.453 153.169L345.188 404.188C729.987 651.526 1119.63 843.125 1461.05 815.917Z" fill="#EF5DA8"/>
</g>
</svg>
